<svg xmlns="http://www.w3.org/2000/svg" id="Layer_1" x="0" y="0" version="1.1" viewBox="0 0 225.4 225.4" xml:space="preserve"><style>.st0{fill:#f2f2f2}.st3{fill:#3d3d3d}</style><path d="M18.2 17h90v192h-90z" class="st0"/><path d="M29.2 75h134v134h-134z" class="st0"/><path fill="none" d="M-63.8-22.7h270v270h-270v-270z"/><path fill="#ccc" d="M112.7-.2h-90C10.3-.2.3 9.9.3 22.3l-.1 180c0 12.4 10 22.5 22.4 22.5h135.1c12.4 0 22.5-10.1 22.5-22.5v-135L112.7-.2zm-90 202.5v-180h78.8v56.3h56.2v123.8h-135z"/><path d="M171.6 188.7l5.9-14.8h16.9l-8-22.5 10-25.4 28.8 76.4H204l-4.9-13.7h-27.5z" class="st3"/><path fill="#5a0fc8" d="M153.5 202.4l30.8-76.4h-20.4l-21.1 49.3-15-49.3h-15.7L96 175.3l-11.3-22.5-10.3 31.6 10.4 17.9H105l14.5-44.3 13.9 44.3h20.1z"/><path d="M41.7 176.1h12.6c3.8 0 7.2-.4 10.2-1.3l3.3-10 9.1-28c-.7-1.1-1.5-2.1-2.4-3.1C69.8 128.6 63 126 54 126H22.4v76.4h19.4v-26.3zm16.7-32.5c1.8 1.8 2.7 4.3 2.7 7.4 0 3.1-.8 5.6-2.4 7.4-1.8 2-5 3-9.7 3h-7.3v-20.5H49c4.5-.1 7.6.8 9.4 2.7z" class="st3"/></svg>