<?xml version="1.0" encoding="utf-8"?>
<!-- Generator: Adobe Illustrator 24.1.2, SVG Export Plug-In . SVG Version: 6.00 Build 0)  -->
<svg version="1.1" id="Layer_1" xmlns="http://www.w3.org/2000/svg" xmlns:xlink="http://www.w3.org/1999/xlink" x="0px" y="0px"
	 viewBox="0 0 144 144" style="enable-background:new 0 0 144 144;" xml:space="preserve">
<style type="text/css">
	.st0{fill:#FFFFFF;}
	.st1{fill:none;stroke:#0000FF;stroke-width:0.5;stroke-miterlimit:10;}
	.st2{fill:none;stroke:#FF0000;stroke-width:0.5;stroke-miterlimit:10;}
	.st3{fill:#F2F2F2;}
	.st4{fill:#CCCCCC;}
	.st5{fill:#3D3D3D;}
	.st6{fill:#5A0FC8;}
</style>
<rect y="0" class="st0" width="144" height="144"/>
<g>
	<line class="st1" x1="0" y1="0" x2="144" y2="0"/>
</g>
<g>
	<line class="st1" x1="0" y1="12" x2="144" y2="12"/>
</g>
<g>
	<line class="st1" x1="0" y1="24" x2="144" y2="24"/>
</g>
<g>
	<line class="st1" x1="0" y1="36" x2="144" y2="36"/>
</g>
<g>
	<line class="st1" x1="0" y1="48" x2="144" y2="48"/>
</g>
<g>
	<line class="st1" x1="0" y1="60" x2="144" y2="60"/>
</g>
<g>
	<line class="st1" x1="0" y1="72" x2="144" y2="72"/>
</g>
<g>
	<line class="st1" x1="0" y1="84" x2="144" y2="84"/>
</g>
<g>
	<line class="st1" x1="0" y1="96" x2="144" y2="96"/>
</g>
<g>
	<line class="st1" x1="0" y1="108" x2="144" y2="108"/>
</g>
<g>
	<line class="st1" x1="0" y1="120" x2="144" y2="120"/>
</g>
<g>
	<line class="st1" x1="0" y1="132" x2="144" y2="132"/>
</g>
<g>
	<line class="st1" x1="0" y1="144" x2="144" y2="144"/>
</g>
<line class="st2" x1="21" y1="0" x2="21" y2="144"/>
<g>
	<rect x="37.2" y="36.9" class="st3" width="33.1" height="70.7"/>
	<rect x="41.3" y="58.3" class="st3" width="49.3" height="49.3"/>
	<path class="st4" d="M72,30.6H38.9c-4.6,0-8.2,3.7-8.2,8.3l0,66.2c0,4.6,3.7,8.3,8.2,8.3h49.7c4.6,0,8.3-3.7,8.3-8.3V55.4L72,30.6z
		 M38.9,105.1V38.9h29v20.7h20.7v45.6L38.9,105.1L38.9,105.1z"/>
	<g>
		<path class="st5" d="M93.7,100.1l2.2-5.4h6.2l-2.9-8.3l3.7-9.3l10.6,28.1h-7.8l-1.8-5H93.7z"/>
		<path class="st6" d="M87,105.2L98.3,77h-7.5l-7.8,18.1L77.6,77h-5.8l-5.9,18.1l-4.2-8.3l-3.8,11.6l3.8,6.6h7.4l5.3-16.3l5.1,16.3
			L87,105.2L87,105.2z"/>
		<path class="st5" d="M45.9,95.5h4.6c1.4,0,2.6-0.1,3.8-0.5l1.2-3.7L58.8,81c-0.3-0.4-0.6-0.8-0.9-1.1C56.2,78,53.7,77,50.4,77
			H38.8v28.1h7.1L45.9,95.5L45.9,95.5z M52,83.5c0.7,0.7,1,1.6,1,2.7s-0.3,2.1-0.9,2.7c-0.7,0.7-1.8,1.1-3.6,1.1h-2.7v-7.5h2.7
			C50.2,82.5,51.4,82.8,52,83.5z"/>
	</g>
</g>
</svg>
